<svg xmlns="http://www.w3.org/2000/svg" xmlns:xlink="http://www.w3.org/1999/xlink" version="1.1" width="1000" height="1000" viewBox="0 0 1000 1000" xml:space="preserve">
<desc>Created with Fabric.js 3.5.0</desc>
<defs>
</defs>
<rect x="0" y="0" width="100%" height="100%" fill="#ffffff"/>
<g transform="matrix(0.03 0 0 0.03 57.4545 57.4545)" id="466944">
<g style="" vector-effect="non-scaling-stroke">
		<g transform="matrix(1.6978 0 0 1.6978 0.0017 179.033)" id="Capa_1">
<path style="stroke: none; stroke-width: 1; stroke-dasharray: none; stroke-linecap: butt; stroke-dashoffset: 0; stroke-linejoin: miter; stroke-miterlimit: 4; is-custom-font: none; font-file-url: none; fill: rgb(0,0,0); fill-rule: nonzero; opacity: 1;" transform=" translate(-235.6, -341.05)" d="M 457.7 230.15 c -7.5 0 -13.5 6 -13.5 13.5 v 122.8 c 0 33.4 -27.2 60.5 -60.5 60.5 H 87.5 c -33.4 0 -60.5 -27.2 -60.5 -60.5 v -124.8 c 0 -7.5 -6 -13.5 -13.5 -13.5 s -13.5 6 -13.5 13.5 v 124.8 c 0 48.3 39.3 87.5 87.5 87.5 h 296.2 c 48.3 0 87.5 -39.3 87.5 -87.5 v -122.8 C 471.2 236.25 465.2 230.15 457.7 230.15 z" stroke-linecap="round"/>
</g>
		<g transform="matrix(1.6978 0 0 1.6978 -0.0842 -87.605)" id="Capa_1">
<path style="stroke: none; stroke-width: 1; stroke-dasharray: none; stroke-linecap: butt; stroke-dashoffset: 0; stroke-linejoin: miter; stroke-miterlimit: 4; is-custom-font: none; font-file-url: none; fill: rgb(0,0,0); fill-rule: nonzero; opacity: 1;" transform=" translate(-235.55, -184)" d="M 226.1 346.75 c 2.6 2.6 6.1 4 9.5 4 s 6.9 -1.3 9.5 -4 l 85.8 -85.8 c 5.3 -5.3 5.3 -13.8 0 -19.1 c -5.3 -5.3 -13.8 -5.3 -19.1 0 l -62.7 62.8 V 30.75 c 0 -7.5 -6 -13.5 -13.5 -13.5 s -13.5 6 -13.5 13.5 v 273.9 l -62.8 -62.8 c -5.3 -5.3 -13.8 -5.3 -19.1 0 c -5.3 5.3 -5.3 13.8 0 19.1 L 226.1 346.75 z" stroke-linecap="round"/>
</g>
</g>
</g>
</svg>